<?xml version="1.0" encoding="UTF-8" standalone="no"?>
<svg xmlns="http://www.w3.org/2000/svg" viewBox="0 0 600 400" width="600" height="400">
  <defs>
    <linearGradient id="grad1" x1="0%" y1="0%" x2="100%" y2="0%">
      <stop offset="0%" stop-color="#1a5fb4" stop-opacity="0.8" />
      <stop offset="100%" stop-color="#3584e4" stop-opacity="0.6" />
    </linearGradient>
    <linearGradient id="grad2" x1="0%" y1="0%" x2="100%" y2="0%">
      <stop offset="0%" stop-color="#ff7800" stop-opacity="0.8" />
      <stop offset="100%" stop-color="#ff9e44" stop-opacity="0.6" />
    </linearGradient>
    <linearGradient id="grad3" x1="0%" y1="0%" x2="100%" y2="0%">
      <stop offset="0%" stop-color="#6a67ce" stop-opacity="0.8" />
      <stop offset="100%" stop-color="#8d8ae5" stop-opacity="0.6" />
    </linearGradient>
    <filter id="shadow" x="-20%" y="-20%" width="140%" height="140%">
      <feDropShadow dx="2" dy="2" stdDeviation="3" flood-color="#00000033" />
    </filter>
    <style>
      @keyframes pulse {
        0% { opacity: 0.7; }
        50% { opacity: 1; }
        100% { opacity: 0.7; }
      }
      .pulse {
        animation: pulse 3s infinite ease-in-out;
      }
      @keyframes rotate {
        from { transform: rotate(0deg); }
        to { transform: rotate(360deg); }
      }
      .rotate {
        animation: rotate 60s infinite linear;
        transform-origin: 300px 200px;
      }
      @keyframes fadeIn {
        from { opacity: 0; }
        to { opacity: 1; }
      }
      .fadeIn {
        animation: fadeIn 1s ease-in-out;
      }
    </style>
  </defs>

  <!-- 背景 -->
  <rect width="600" height="400" fill="#f8f9fa" rx="8" ry="8" />
  
  <!-- 雷达图网格 - 旋转动画 -->
  <g class="rotate" opacity="0.3">
    <!-- 外圈 -->
    <circle cx="300" cy="200" r="150" fill="none" stroke="#aaa" stroke-width="1" stroke-dasharray="4,2" />
    <!-- 内圈 -->
    <circle cx="300" cy="200" r="120" fill="none" stroke="#aaa" stroke-width="1" stroke-dasharray="4,2" />
    <circle cx="300" cy="200" r="90" fill="none" stroke="#aaa" stroke-width="1" stroke-dasharray="4,2" />
    <circle cx="300" cy="200" r="60" fill="none" stroke="#aaa" stroke-width="1" stroke-dasharray="4,2" />
    <circle cx="300" cy="200" r="30" fill="none" stroke="#aaa" stroke-width="1" stroke-dasharray="4,2" />
    
    <!-- 轴线 -->
    <line x1="300" y1="50" x2="300" y2="350" stroke="#aaa" stroke-width="1" />
    <line x1="150" y1="200" x2="450" y2="200" stroke="#aaa" stroke-width="1" />
    <line x1="195" y1="95" x2="405" y2="305" stroke="#aaa" stroke-width="1" />
    <line x1="195" y1="305" x2="405" y2="95" stroke="#aaa" stroke-width="1" />
  </g>
  
  <!-- 技术A雷达 -->
  <polygon points="300,80 370,120 400,200 370,280 300,320 230,280 200,200 230,120" 
         fill="url(#grad1)" opacity="0.7" class="pulse" />
  <circle cx="300" cy="80" r="4" fill="#1a5fb4" />
  <circle cx="370" cy="120" r="4" fill="#1a5fb4" />
  <circle cx="400" cy="200" r="4" fill="#1a5fb4" />
  <circle cx="370" cy="280" r="4" fill="#1a5fb4" />
  <circle cx="300" cy="320" r="4" fill="#1a5fb4" />
  <circle cx="230" cy="280" r="4" fill="#1a5fb4" />
  <circle cx="200" cy="200" r="4" fill="#1a5fb4" />
  <circle cx="230" cy="120" r="4" fill="#1a5fb4" />
  
  <!-- 技术B雷达 -->
  <polygon points="300,100 350,130 370,200 350,270 300,300 250,270 230,200 250,130" 
         fill="url(#grad2)" opacity="0.7" class="pulse" />
  <circle cx="300" cy="100" r="4" fill="#ff7800" />
  <circle cx="350" cy="130" r="4" fill="#ff7800" />
  <circle cx="370" cy="200" r="4" fill="#ff7800" />
  <circle cx="350" cy="270" r="4" fill="#ff7800" />
  <circle cx="300" cy="300" r="4" fill="#ff7800" />
  <circle cx="250" cy="270" r="4" fill="#ff7800" />
  <circle cx="230" cy="200" r="4" fill="#ff7800" />
  <circle cx="250" cy="130" r="4" fill="#ff7800" />
  
  <!-- 技术C雷达 -->
  <polygon points="300,120 340,150 350,200 340,250 300,280 260,250 250,200 260,150" 
         fill="url(#grad3)" opacity="0.7" class="pulse" />
  <circle cx="300" cy="120" r="4" fill="#6a67ce" />
  <circle cx="340" cy="150" r="4" fill="#6a67ce" />
  <circle cx="350" cy="200" r="4" fill="#6a67ce" />
  <circle cx="340" cy="250" r="4" fill="#6a67ce" />
  <circle cx="300" cy="280" r="4" fill="#6a67ce" />
  <circle cx="260" cy="250" r="4" fill="#6a67ce" />
  <circle cx="250" cy="200" r="4" fill="#6a67ce" />
  <circle cx="260" cy="150" r="4" fill="#6a67ce" />
  
  <!-- 轴标签 -->
  <text x="300" y="40" text-anchor="middle" font-family="Arial, sans-serif" font-size="12" fill="#333" class="fadeIn">技术成熟度</text>
  <text x="465" y="200" text-anchor="start" font-family="Arial, sans-serif" font-size="12" fill="#333" class="fadeIn">市场应用</text>
  <text x="410" y="320" text-anchor="middle" font-family="Arial, sans-serif" font-size="12" fill="#333" class="fadeIn">经济效益</text>
  <text x="190" y="320" text-anchor="middle" font-family="Arial, sans-serif" font-size="12" fill="#333" class="fadeIn">环保节能</text>
  <text x="135" y="200" text-anchor="end" font-family="Arial, sans-serif" font-size="12" fill="#333" class="fadeIn">安全性</text>
  <text x="190" y="80" text-anchor="middle" font-family="Arial, sans-serif" font-size="12" fill="#333" class="fadeIn">扩展性</text>
  <text x="415" y="80" text-anchor="middle" font-family="Arial, sans-serif" font-size="12" fill="#333" class="fadeIn">兼容性</text>
  <text x="300" y="340" text-anchor="middle" font-family="Arial, sans-serif" font-size="12" fill="#333" class="fadeIn">智能化水平</text>
  
  <!-- 技术标题 -->
  <g class="fadeIn">
    <rect x="110" y="360" width="12" height="12" fill="url(#grad1)" />
    <text x="130" y="370" font-family="Arial, sans-serif" font-size="12" fill="#333">技术路线A：智能物流系统</text>
    
    <rect x="280" y="360" width="12" height="12" fill="url(#grad2)" />
    <text x="300" y="370" font-family="Arial, sans-serif" font-size="12" fill="#333">技术路线B：自动化配送系统</text>
    
    <rect x="450" y="360" width="12" height="12" fill="url(#grad3)" />
    <text x="470" y="370" font-family="Arial, sans-serif" font-size="12" fill="#333">技术路线C：传统物流优化</text>
  </g>
  
  <!-- 中心点和光晕 -->
  <circle cx="300" cy="200" r="5" fill="#1a5fb4" />
  <circle cx="300" cy="200" r="10" fill="none" stroke="#1a5fb4" stroke-width="1" class="pulse" />
  
  <!-- 标题 -->
  <text x="300" y="30" text-anchor="middle" font-family="Arial, sans-serif" font-size="16" font-weight="bold" fill="#333">物流技术路线对比分析</text>
</svg> 