<svg xmlns="http://www.w3.org/2000/svg" viewBox="0 0 600 350" width="600" height="350">
  <defs>
    <linearGradient id="bg-gradient" x1="0%" y1="0%" x2="100%" y2="100%">
      <stop offset="0%" stop-color="#f0f5ff" />
      <stop offset="100%" stop-color="#e1ebff" />
    </linearGradient>
    <linearGradient id="primary-gradient" x1="0%" y1="0%" x2="100%" y2="100%">
      <stop offset="0%" stop-color="#1a5fb4" />
      <stop offset="100%" stop-color="#1552a0" />
    </linearGradient>
    <linearGradient id="accent-gradient" x1="0%" y1="0%" x2="100%" y2="100%">
      <stop offset="0%" stop-color="#ff7800" />
      <stop offset="100%" stop-color="#e65c00" />
    </linearGradient>
    <linearGradient id="purple-gradient" x1="0%" y1="0%" x2="100%" y2="100%">
      <stop offset="0%" stop-color="#8D6AB8" />
      <stop offset="100%" stop-color="#6A5687" />
    </linearGradient>
    <filter id="shadow" x="-10%" y="-10%" width="120%" height="120%">
      <feDropShadow dx="2" dy="2" stdDeviation="5" flood-color="#00000033" />
    </filter>
    <style>
      @keyframes float {
        0% { transform: translateY(0px); }
        50% { transform: translateY(-10px); }
        100% { transform: translateY(0px); }
      }
      .floating {
        animation: float 6s ease-in-out infinite;
      }
      .floating-slow {
        animation: float 8s ease-in-out infinite;
      }
      .floating-fast {
        animation: float 4s ease-in-out infinite;
      }
      @keyframes pulse {
        0% { opacity: 0.7; }
        50% { opacity: 1; }
        100% { opacity: 0.7; }
      }
      .pulse {
        animation: pulse 3s infinite ease-in-out;
      }
    </style>
  </defs>

  <!-- 背景 -->
  <rect x="0" y="0" width="600" height="350" rx="10" ry="10" fill="url(#bg-gradient)" />
  
  <!-- 装饰元素 -->
  <circle cx="50" cy="50" r="100" fill="#1a5fb4" opacity="0.05" />
  <circle cx="550" cy="300" r="80" fill="#ff7800" opacity="0.05" />
  
  <!-- 左侧：教学元素 -->
  <g class="floating-slow">
    <!-- 左侧：教师/教学元素 -->
    <rect x="60" y="80" width="120" height="160" rx="10" ry="10" fill="white" stroke="#ddd" stroke-width="1" filter="url(#shadow)" />
    <line x1="80" y1="110" x2="160" y2="110" stroke="#eee" stroke-width="2" />
    <line x1="80" y1="140" x2="160" y2="140" stroke="#eee" stroke-width="2" />
    <line x1="80" y1="170" x2="160" y2="170" stroke="#eee" stroke-width="2" />
    <line x1="80" y1="200" x2="160" y2="200" stroke="#eee" stroke-width="2" />
    
    <!-- 教学图标 -->
    <circle cx="120" cy="50" r="25" fill="url(#purple-gradient)" filter="url(#shadow)" />
    <text x="120" y="55" text-anchor="middle" font-family="Arial, sans-serif" font-size="12" fill="white" font-weight="bold">教学</text>
  </g>

  <!-- 中间：AI处理 -->
  <g class="pulse">
    <!-- 中央处理单元 -->
    <circle cx="300" cy="175" r="60" fill="white" stroke="url(#primary-gradient)" stroke-width="3" filter="url(#shadow)" />
    <text x="300" y="175" text-anchor="middle" font-family="Arial, sans-serif" font-size="16" fill="#1a5fb4" font-weight="bold">聚研AI</text>
    <text x="300" y="195" text-anchor="middle" font-family="Arial, sans-serif" font-size="12" fill="#666">智能教研平台</text>
    
    <!-- 连接线 -->
    <line x1="190" y1="175" x2="240" y2="175" stroke="url(#primary-gradient)" stroke-width="2" stroke-dasharray="5,3" />
    <line x1="360" y1="175" x2="410" y2="175" stroke="url(#primary-gradient)" stroke-width="2" stroke-dasharray="5,3" />
    
    <!-- 连接箭头 -->
    <polygon points="240,170 250,175 240,180" fill="#1a5fb4" />
    <polygon points="410,170 400,175 410,180" fill="#1a5fb4" />
  </g>

  <!-- 右侧：科研元素 -->
  <g class="floating">
    <!-- 右侧：科研/数据分析 -->
    <rect x="420" y="80" width="120" height="160" rx="10" ry="10" fill="white" stroke="#ddd" stroke-width="1" filter="url(#shadow)" />
    
    <!-- 数据可视化元素 -->
    <line x1="440" y1="180" x2="440" y2="120" stroke="#1a5fb4" stroke-width="6" />
    <line x1="460" y1="180" x2="460" y2="140" stroke="#3584e4" stroke-width="6" />
    <line x1="480" y1="180" x2="480" y2="100" stroke="#ff7800" stroke-width="6" />
    <line x1="500" y1="180" x2="500" y2="160" stroke="#8D6AB8" stroke-width="6" />
    <line x1="520" y1="180" x2="520" y2="130" stroke="#1a5fb4" stroke-width="6" />
    
    <!-- 科研图标 -->
    <circle cx="480" cy="50" r="25" fill="url(#accent-gradient)" filter="url(#shadow)" />
    <text x="480" y="55" text-anchor="middle" font-family="Arial, sans-serif" font-size="12" fill="white" font-weight="bold">科研</text>
  </g>

  <!-- 浮动图形元素 -->
  <g class="floating-fast">
    <circle cx="200" cy="80" r="15" fill="url(#primary-gradient)" opacity="0.6" />
    <circle cx="400" cy="100" r="10" fill="url(#accent-gradient)" opacity="0.6" />
    <circle cx="350" cy="270" r="12" fill="url(#purple-gradient)" opacity="0.6" />
    <circle cx="250" cy="250" r="8" fill="url(#primary-gradient)" opacity="0.6" />
  </g>

  <!-- 底部标识 -->
  <text x="300" y="320" text-anchor="middle" font-family="Arial, sans-serif" font-size="14" fill="#1a5fb4" font-weight="bold">聚研AI — 让教研更高效、更轻松！</text>
</svg> 