<?xml version="1.0" encoding="UTF-8" standalone="no"?>
<svg xmlns="http://www.w3.org/2000/svg" viewBox="0 0 800 500" width="800" height="500">
  <defs>
    <linearGradient id="bg-gradient" x1="0%" y1="0%" x2="100%" y2="100%">
      <stop offset="0%" stop-color="#f9f5ff" />
      <stop offset="100%" stop-color="#fdf0e6" />
    </linearGradient>
    <linearGradient id="primary-gradient" x1="0%" y1="0%" x2="100%" y2="0%">
      <stop offset="0%" stop-color="#1a5fb4" />
      <stop offset="100%" stop-color="#3584e4" />
    </linearGradient>
    <linearGradient id="accent-gradient" x1="0%" y1="0%" x2="100%" y2="0%">
      <stop offset="0%" stop-color="#ff7800" />
      <stop offset="100%" stop-color="#ff9e44" />
    </linearGradient>
    <linearGradient id="chart-gradient" x1="0%" y1="0%" x2="0%" y2="100%">
      <stop offset="0%" stop-color="#1a5fb4" stop-opacity="0.8" />
      <stop offset="100%" stop-color="#1a5fb4" stop-opacity="0.1" />
    </linearGradient>
    <filter id="shadow" x="-10%" y="-10%" width="120%" height="120%">
      <feDropShadow dx="2" dy="2" stdDeviation="3" flood-color="#00000022" />
    </filter>
    <style>
      @keyframes pulse {
        0% { opacity: 0.8; }
        50% { opacity: 1; }
        100% { opacity: 0.8; }
      }
      .pulse {
        animation: pulse 3s infinite ease-in-out;
      }
      @keyframes grow {
        0% { transform: scaleY(0); }
        100% { transform: scaleY(1); }
      }
      .grow {
        transform-origin: bottom;
      }
      .bar1 { animation: grow 1s ease-out forwards; animation-delay: 0.2s; }
      .bar2 { animation: grow 1.2s ease-out forwards; animation-delay: 0.4s; }
      .bar3 { animation: grow 1.4s ease-out forwards; animation-delay: 0.6s; }
      .bar4 { animation: grow 1.6s ease-out forwards; animation-delay: 0.8s; }
      .bar5 { animation: grow 1.8s ease-out forwards; animation-delay: 1s; }
      
      @keyframes slideIn {
        0% { transform: translateX(-20px); opacity: 0; }
        100% { transform: translateX(0); opacity: 1; }
      }
      .slide-in {
        opacity: 0;
        animation: slideIn 1s ease-out forwards;
      }
      .delay1 { animation-delay: 0.2s; }
      .delay2 { animation-delay: 0.4s; }
      .delay3 { animation-delay: 0.6s; }
      .delay4 { animation-delay: 0.8s; }
      
      @keyframes rotate {
        from { transform: rotate(0deg); }
        to { transform: rotate(360deg); }
      }
      .rotate {
        animation: rotate 20s infinite linear;
      }
      
      @keyframes dash {
        0% { stroke-dashoffset: 500; }
        100% { stroke-dashoffset: 0; }
      }
      .dash {
        stroke-dasharray: 10, 5;
        stroke-dashoffset: 500;
        animation: dash 15s linear infinite;
      }
      
      @keyframes float {
        0%, 100% { transform: translateY(0); }
        50% { transform: translateY(-10px); }
      }
      .float {
        animation: float 5s ease-in-out infinite;
      }
    </style>
  </defs>

  <!-- 背景 -->
  <rect width="800" height="500" fill="url(#bg-gradient)" rx="10" ry="10" />
  
  <!-- 装饰性网格 - 旋转效果 -->
  <g opacity="0.1" class="rotate" transform="translate(400, 250)">
    <circle cx="0" cy="0" r="200" fill="none" stroke="#1a5fb4" stroke-width="1" />
    <circle cx="0" cy="0" r="150" fill="none" stroke="#1a5fb4" stroke-width="1" />
    <circle cx="0" cy="0" r="100" fill="none" stroke="#1a5fb4" stroke-width="1" />
    <line x1="-220" y1="0" x2="220" y2="0" stroke="#1a5fb4" stroke-width="1" />
    <line x1="0" y1="-220" x2="0" y2="220" stroke="#1a5fb4" stroke-width="1" />
    <line x1="-150" y1="-150" x2="150" y2="150" stroke="#1a5fb4" stroke-width="1" />
    <line x1="-150" y1="150" x2="150" y2="-150" stroke="#1a5fb4" stroke-width="1" />
  </g>
  
  <!-- 标题区域 -->
  <g class="slide-in delay1">
    <rect x="150" y="30" width="500" height="60" rx="10" ry="10" fill="white" filter="url(#shadow)" />
    <text x="400" y="65" text-anchor="middle" font-family="Arial, sans-serif" font-size="22" font-weight="bold" fill="#333">课题立项智能辅助系统</text>
    <path d="M 150,70 L 650,70" stroke="#ff7800" stroke-width="3" stroke-linecap="round" />
  </g>
  
  <!-- 左侧：趋势分析面板 -->
  <g class="slide-in delay2">
    <rect x="50" y="120" width="220" height="340" rx="10" ry="10" fill="white" filter="url(#shadow)" />
    <rect x="50" y="120" width="220" height="40" rx="10" ry="0" fill="url(#primary-gradient)" />
    <text x="160" y="145" text-anchor="middle" font-family="Arial, sans-serif" font-size="16" fill="white" font-weight="bold">课题趋势分析</text>
    
    <!-- 图表区域 -->
    <g transform="translate(70, 180)">
      <!-- 趋势线图 -->
      <rect x="0" y="0" width="180" height="120" rx="5" ry="5" fill="#f8f9fa" />
      <text x="90" y="20" text-anchor="middle" font-family="Arial, sans-serif" font-size="12" fill="#666">热点研究方向趋势</text>
      
      <!-- 坐标轴 -->
      <line x1="20" y1="100" x2="160" y2="100" stroke="#ccc" stroke-width="1" />
      <line x1="20" y1="30" x2="20" y2="100" stroke="#ccc" stroke-width="1" />
      
      <!-- 曲线 -->
      <path d="M 20,80 C 40,85 60,75 80,65 C 100,55 120,40 140,30 S 160,25 160,25" 
            fill="none" stroke="#1a5fb4" stroke-width="2" />
      <path d="M 20,80 C 40,85 60,75 80,65 C 100,55 120,40 140,30 S 160,25 160,25" 
            fill="url(#chart-gradient)" opacity="0.3" stroke="none" />
      
      <!-- 数据点 -->
      <circle cx="20" cy="80" r="3" fill="#1a5fb4" />
      <circle cx="50" cy="75" r="3" fill="#1a5fb4" />
      <circle cx="80" cy="65" r="3" fill="#1a5fb4" />
      <circle cx="110" cy="50" r="3" fill="#1a5fb4" />
      <circle cx="140" cy="30" r="3" fill="#1a5fb4" />
      <circle cx="160" cy="25" r="3" fill="#1a5fb4" />
    </g>
    
    <!-- 热点词云 -->
    <g transform="translate(70, 320)">
      <rect x="0" y="0" width="180" height="120" rx="5" ry="5" fill="#f8f9fa" />
      <text x="90" y="20" text-anchor="middle" font-family="Arial, sans-serif" font-size="12" fill="#666">热点关键词</text>
      
      <text x="50" y="50" text-anchor="middle" font-family="Arial, sans-serif" font-size="16" fill="#1a5fb4" font-weight="bold" transform="rotate(-10, 50, 50)" class="pulse">人工智能</text>
      <text x="120" y="60" text-anchor="middle" font-family="Arial, sans-serif" font-size="12" fill="#ff7800" transform="rotate(5, 120, 60)" class="pulse">机器学习</text>
      <text x="40" y="80" text-anchor="middle" font-family="Arial, sans-serif" font-size="10" fill="#6a67ce" transform="rotate(-5, 40, 80)" class="pulse">大数据</text>
      <text x="90" y="85" text-anchor="middle" font-family="Arial, sans-serif" font-size="14" fill="#2ec27e" transform="rotate(8, 90, 85)" class="pulse">智能制造</text>
      <text x="140" y="90" text-anchor="middle" font-family="Arial, sans-serif" font-size="11" fill="#e01b24" transform="rotate(-8, 140, 90)" class="pulse">碳中和</text>
      <text x="70" y="110" text-anchor="middle" font-family="Arial, sans-serif" font-size="12" fill="#1a5fb4" transform="rotate(3, 70, 110)" class="pulse">新能源</text>
      <text x="130" y="40" text-anchor="middle" font-family="Arial, sans-serif" font-size="13" fill="#ff7800" transform="rotate(-3, 130, 40)" class="pulse">区块链</text>
    </g>
  </g>
  
  <!-- 中间：项目规划区域 -->
  <g class="slide-in delay3">
    <rect x="290" y="120" width="220" height="340" rx="10" ry="10" fill="white" filter="url(#shadow)" />
    <rect x="290" y="120" width="220" height="40" rx="10" ry="0" fill="url(#accent-gradient)" />
    <text x="400" y="145" text-anchor="middle" font-family="Arial, sans-serif" font-size="16" fill="white" font-weight="bold">项目规划设计</text>
    
    <!-- 项目看板 -->
    <g transform="translate(310, 180)">
      <!-- 面板 -->
      <rect x="0" y="0" width="180" height="260" rx="5" ry="5" fill="#f8f9fa" />
      
      <!-- 项目结构 -->
      <g transform="translate(20, 20)">
        <rect x="0" y="0" width="140" height="30" rx="5" ry="5" fill="#fff0e0" stroke="#ff7800" stroke-width="1" />
        <text x="70" y="20" text-anchor="middle" font-family="Arial, sans-serif" font-size="14" fill="#333" font-weight="bold">项目总体规划</text>
        
        <g class="float" style="animation-delay: 0.2s;">
          <line x1="70" y1="30" x2="70" y2="50" stroke="#ccc" stroke-width="1" stroke-dasharray="4,2" />
          <rect x="20" y="50" width="100" height="25" rx="5" ry="5" fill="#e1ebff" stroke="#1a5fb4" stroke-width="1" />
          <text x="70" y="67" text-anchor="middle" font-family="Arial, sans-serif" font-size="12" fill="#333">研究背景分析</text>
        </g>
        
        <g class="float" style="animation-delay: 0.4s;">
          <line x1="70" y1="75" x2="70" y2="95" stroke="#ccc" stroke-width="1" stroke-dasharray="4,2" />
          <rect x="20" y="95" width="100" height="25" rx="5" ry="5" fill="#e1ebff" stroke="#1a5fb4" stroke-width="1" />
          <text x="70" y="112" text-anchor="middle" font-family="Arial, sans-serif" font-size="12" fill="#333">技术路线设计</text>
        </g>
        
        <g class="float" style="animation-delay: 0.6s;">
          <line x1="70" y1="120" x2="70" y2="140" stroke="#ccc" stroke-width="1" stroke-dasharray="4,2" />
          <rect x="20" y="140" width="100" height="25" rx="5" ry="5" fill="#e1ebff" stroke="#1a5fb4" stroke-width="1" />
          <text x="70" y="157" text-anchor="middle" font-family="Arial, sans-serif" font-size="12" fill="#333">预期成果规划</text>
        </g>
        
        <g class="float" style="animation-delay: 0.8s;">
          <line x1="70" y1="165" x2="70" y2="185" stroke="#ccc" stroke-width="1" stroke-dasharray="4,2" />
          <rect x="20" y="185" width="100" height="25" rx="5" ry="5" fill="#e1ebff" stroke="#1a5fb4" stroke-width="1" />
          <text x="70" y="202" text-anchor="middle" font-family="Arial, sans-serif" font-size="12" fill="#333">经费预算方案</text>
        </g>
      </g>
    </g>
  </g>
  
  <!-- 右侧：竞争与优势分析 -->
  <g class="slide-in delay4">
    <rect x="530" y="120" width="220" height="340" rx="10" ry="10" fill="white" filter="url(#shadow)" />
    <rect x="530" y="120" width="220" height="40" rx="10" ry="0" fill="url(#primary-gradient)" />
    <text x="640" y="145" text-anchor="middle" font-family="Arial, sans-serif" font-size="16" fill="white" font-weight="bold">竞争优势分析</text>
    
    <!-- 竞争格局分析图 -->
    <g transform="translate(550, 175)">
      <rect x="0" y="0" width="180" height="140" rx="5" ry="5" fill="#f8f9fa" />
      <text x="90" y="20" text-anchor="middle" font-family="Arial, sans-serif" font-size="12" fill="#666">竞争主体分析</text>
      
      <!-- 柱状图 -->
      <line x1="30" y1="120" x2="170" y2="120" stroke="#ccc" stroke-width="1" />
      <line x1="30" y1="40" x2="30" y2="120" stroke="#ccc" stroke-width="1" />
      
      <!-- 柱形 -->
      <g transform="translate(0, 120) scale(1, -1)">
        <rect x="45" y="0" width="15" height="50" fill="url(#primary-gradient)" class="grow bar1" />
        <rect x="75" y="0" width="15" height="70" fill="url(#primary-gradient)" class="grow bar2" />
        <rect x="105" y="0" width="15" height="60" fill="url(#primary-gradient)" class="grow bar3" />
        <rect x="135" y="0" width="15" height="40" fill="url(#primary-gradient)" class="grow bar4" />
      </g>
      
      <!-- 柱状图标签 -->
      <text x="52" y="130" text-anchor="middle" font-family="Arial, sans-serif" font-size="9" fill="#666">高校A</text>
      <text x="82" y="130" text-anchor="middle" font-family="Arial, sans-serif" font-size="9" fill="#666">高校B</text>
      <text x="112" y="130" text-anchor="middle" font-family="Arial, sans-serif" font-size="9" fill="#666">企业C</text>
      <text x="142" y="130" text-anchor="middle" font-family="Arial, sans-serif" font-size="9" fill="#666">研究所</text>
    </g>
    
    <!-- 优势分析 -->
    <g transform="translate(550, 330)">
      <rect x="0" y="0" width="180" height="110" rx="5" ry="5" fill="#f8f9fa" />
      <text x="90" y="20" text-anchor="middle" font-family="Arial, sans-serif" font-size="12" fill="#666">项目优势分析</text>
      
      <!-- 优势项目 -->
      <g transform="translate(15, 35)">
        <circle cx="0" cy="0" r="5" fill="#1a5fb4" />
        <text x="12" y="4" font-family="Arial, sans-serif" font-size="11" fill="#333">创新性：比同行领先25%</text>
      </g>
      
      <g transform="translate(15, 55)">
        <circle cx="0" cy="0" r="5" fill="#ff7800" />
        <text x="12" y="4" font-family="Arial, sans-serif" font-size="11" fill="#333">团队实力：拥有核心专家</text>
      </g>
      
      <g transform="translate(15, 75)">
        <circle cx="0" cy="0" r="5" fill="#2ec27e" />
        <text x="12" y="4" font-family="Arial, sans-serif" font-size="11" fill="#333">成果转化：市场应用前景广</text>
      </g>
      
      <g transform="translate(15, 95)">
        <circle cx="0" cy="0" r="5" fill="#e01b24" />
        <text x="12" y="4" font-family="Arial, sans-serif" font-size="11" fill="#333">政策契合：高度符合战略需求</text>
      </g>
    </g>
  </g>
  
  <!-- 流动连接线 -->
  <path d="M 160,290 C 200,290 220,320 240,320 S 280,290 290,290" fill="none" stroke="url(#primary-gradient)" stroke-width="2" class="dash" />
  <path d="M 510,290 C 480,290 460,320 440,320 S 420,290 400,290" fill="none" stroke="url(#primary-gradient)" stroke-width="2" class="dash" />
  
  <!-- 底部按钮和状态区域 -->
  <g transform="translate(400, 480)">
    <rect x="-150" y="-20" width="300" height="30" rx="15" ry="15" fill="url(#accent-gradient)" class="pulse" filter="url(#shadow)" />
    <text x="0" y="0" text-anchor="middle" dominant-baseline="middle" font-family="Arial, sans-serif" font-size="14" fill="white" font-weight="bold">开始智能辅助课题立项</text>
  </g>
  
  <!-- 装饰性动态元素 -->
  <g opacity="0.6">
    <circle cx="50" cy="50" r="3" fill="#1a5fb4" class="pulse" />
    <circle cx="60" cy="65" r="2" fill="#ff7800" class="pulse" />
    <circle cx="45" cy="80" r="4" fill="#6a67ce" class="pulse" />
    
    <circle cx="750" cy="50" r="3" fill="#1a5fb4" class="pulse" />
    <circle cx="740" cy="65" r="2" fill="#ff7800" class="pulse" />
    <circle cx="755" cy="80" r="4" fill="#6a67ce" class="pulse" />
    
    <circle cx="50" cy="450" r="3" fill="#1a5fb4" class="pulse" />
    <circle cx="65" cy="465" r="2" fill="#ff7800" class="pulse" />
    <circle cx="80" cy="445" r="4" fill="#6a67ce" class="pulse" />
    
    <circle cx="750" cy="450" r="3" fill="#1a5fb4" class="pulse" />
    <circle cx="735" cy="465" r="2" fill="#ff7800" class="pulse" />
    <circle cx="720" cy="445" r="4" fill="#6a67ce" class="pulse" />
  </g>
</svg> 