<?xml version="1.0" encoding="UTF-8" standalone="no"?>
<svg xmlns="http://www.w3.org/2000/svg" viewBox="0 0 800 500" width="800" height="500">
  <defs>
    <linearGradient id="bg-gradient" x1="0%" y1="0%" x2="100%" y2="100%">
      <stop offset="0%" stop-color="#f0f5ff" />
      <stop offset="100%" stop-color="#e1ebff" />
    </linearGradient>
    <linearGradient id="research-gradient" x1="0%" y1="0%" x2="100%" y2="0%">
      <stop offset="0%" stop-color="#1a5fb4" />
      <stop offset="100%" stop-color="#3584e4" />
    </linearGradient>
    <linearGradient id="teaching-gradient" x1="0%" y1="0%" x2="100%" y2="0%">
      <stop offset="0%" stop-color="#ff7800" />
      <stop offset="100%" stop-color="#ff9e44" />
    </linearGradient>
    <filter id="shadow" x="-10%" y="-10%" width="120%" height="120%">
      <feDropShadow dx="2" dy="2" stdDeviation="4" flood-color="#00000033" />
    </filter>
    <style>
      @keyframes pulse {
        0% { opacity: 0.7; }
        50% { opacity: 1; }
        100% { opacity: 0.7; }
      }
      .pulse {
        animation: pulse 3s infinite ease-in-out;
      }
      @keyframes rotate {
        from { transform: rotate(0deg); }
        to { transform: rotate(360deg); }
      }
      .rotate {
        animation: rotate 20s infinite linear;
      }
      @keyframes flow {
        0% { stroke-dashoffset: 300; }
        100% { stroke-dashoffset: 0; }
      }
      .flow {
        stroke-dasharray: 20, 5;
        stroke-dashoffset: 300;
        animation: flow 10s infinite linear;
      }
      @keyframes fadeIn {
        from { opacity: 0; transform: translateY(10px); }
        to { opacity: 1; transform: translateY(0); }
      }
      .fadeIn {
        opacity: 0;
        animation: fadeIn 0.8s forwards;
      }
      .delay1 { animation-delay: 0.2s; }
      .delay2 { animation-delay: 0.4s; }
      .delay3 { animation-delay: 0.6s; }
      .delay4 { animation-delay: 0.8s; }
      .delay5 { animation-delay: 1s; }
      @keyframes wave {
        0%, 100% { transform: translateY(0); }
        50% { transform: translateY(-5px); }
      }
      .wave {
        animation: wave 3s infinite ease-in-out;
      }
    </style>
  </defs>

  <!-- 背景 -->
  <rect width="800" height="500" fill="url(#bg-gradient)" rx="10" ry="10" />
  
  <!-- 中央处理/转换区域 - 旋转效果 -->
  <g transform="translate(400, 250)">
    <circle cx="0" cy="0" r="75" fill="white" stroke="#ddd" stroke-width="2" filter="url(#shadow)" />
    <g class="rotate" transform-origin="0 0">
      <circle cx="0" cy="0" r="60" fill="none" stroke="#1a5fb4" stroke-width="2" stroke-dasharray="8,4" />
      <circle cx="0" cy="0" r="45" fill="none" stroke="#ff7800" stroke-width="2" stroke-dasharray="6,3" />
    </g>
    <g class="pulse">
      <path d="M -10,-30 L 10,-30 L 0,-10 Z" fill="#1a5fb4" />
      <path d="M 30,-10 L 30,10 L 10,0 Z" fill="#ff7800" />
      <path d="M -10,30 L 10,30 L 0,10 Z" fill="#1a5fb4" />
      <path d="M -30,-10 L -30,10 L -10,0 Z" fill="#ff7800" />
    </g>
    <text x="0" y="0" text-anchor="middle" dominant-baseline="middle" font-family="Arial, sans-serif" font-size="14" font-weight="bold" fill="#333">教研融合</text>
  </g>
  
  <!-- 左侧：科研部分 -->
  <g class="fadeIn delay1">
    <rect x="50" y="100" width="180" height="300" rx="15" ry="15" fill="white" stroke="#ddd" stroke-width="2" filter="url(#shadow)" />
    <rect x="50" y="100" width="180" height="40" rx="15" ry="15" fill="url(#research-gradient)" />
    <text x="140" y="125" text-anchor="middle" font-family="Arial, sans-serif" font-size="16" fill="white" font-weight="bold">科研成果</text>
    
    <!-- 科研图标 -->
    <circle cx="140" cy="180" r="30" fill="#e1ebff" />
    <g transform="translate(140, 180)">
      <path d="M-15,-5 L-5,-5 L-5,-15 L5,-15 L5,-5 L15,-5 L15,5 L5,5 L5,15 L-5,15 L-5,5 L-15,5 Z" fill="#1a5fb4" />
    </g>
    
    <!-- 科研项目列表 -->
    <g transform="translate(70, 225)">
      <rect x="0" y="0" width="140" height="20" rx="3" ry="3" fill="#f0f5ff" />
      <text x="70" y="15" text-anchor="middle" font-family="Arial, sans-serif" font-size="12" fill="#333">学术论文研究</text>
      
      <rect x="0" y="30" width="140" height="20" rx="3" ry="3" fill="#f0f5ff" />
      <text x="70" y="45" text-anchor="middle" font-family="Arial, sans-serif" font-size="12" fill="#333">专利研发成果</text>
      
      <rect x="0" y="60" width="140" height="20" rx="3" ry="3" fill="#f0f5ff" />
      <text x="70" y="75" text-anchor="middle" font-family="Arial, sans-serif" font-size="12" fill="#333">实验室研究数据</text>
      
      <rect x="0" y="90" width="140" height="20" rx="3" ry="3" fill="#f0f5ff" />
      <text x="70" y="105" text-anchor="middle" font-family="Arial, sans-serif" font-size="12" fill="#333">科研项目案例</text>
      
      <rect x="0" y="120" width="140" height="20" rx="3" ry="3" fill="#f0f5ff" />
      <text x="70" y="135" text-anchor="middle" font-family="Arial, sans-serif" font-size="12" fill="#333">技术路线设计</text>
    </g>
  </g>

  <!-- 右侧：教学部分 -->
  <g class="fadeIn delay2">
    <rect x="570" y="100" width="180" height="300" rx="15" ry="15" fill="white" stroke="#ddd" stroke-width="2" filter="url(#shadow)" />
    <rect x="570" y="100" width="180" height="40" rx="15" ry="15" fill="url(#teaching-gradient)" />
    <text x="660" y="125" text-anchor="middle" font-family="Arial, sans-serif" font-size="16" fill="white" font-weight="bold">教学应用</text>
    
    <!-- 教学图标 -->
    <circle cx="660" cy="180" r="30" fill="#fff0e0" />
    <g transform="translate(660, 180)">
      <path d="M-15,10 L15,10 L15,15 L-15,15 Z" fill="#ff7800" />
      <path d="M-10,-15 L10,-15 L15,-10 L-15,-10 Z" fill="#ff7800" />
      <path d="M-15,-10 L-15,10 L-10,10 L-10,-10 Z" fill="#ff7800" />
      <path d="M15,-10 L15,10 L10,10 L10,-10 Z" fill="#ff7800" />
      <path d="M0,-15 L0,-2 L5,-7 L10,-2 L0,-12 L-10,-2 L-5,-7 Z" fill="#ff7800" />
    </g>
    
    <!-- 教学应用列表 -->
    <g transform="translate(590, 225)" class="wave">
      <rect x="0" y="0" width="140" height="20" rx="3" ry="3" fill="#fff0e0" />
      <text x="70" y="15" text-anchor="middle" font-family="Arial, sans-serif" font-size="12" fill="#333">课程案例设计</text>
      
      <rect x="0" y="30" width="140" height="20" rx="3" ry="3" fill="#fff0e0" />
      <text x="70" y="45" text-anchor="middle" font-family="Arial, sans-serif" font-size="12" fill="#333">实验教学模块</text>
      
      <rect x="0" y="60" width="140" height="20" rx="3" ry="3" fill="#fff0e0" />
      <text x="70" y="75" text-anchor="middle" font-family="Arial, sans-serif" font-size="12" fill="#333">学生研究项目</text>
      
      <rect x="0" y="90" width="140" height="20" rx="3" ry="3" fill="#fff0e0" />
      <text x="70" y="105" text-anchor="middle" font-family="Arial, sans-serif" font-size="12" fill="#333">研究型教学设计</text>
      
      <rect x="0" y="120" width="140" height="20" rx="3" ry="3" fill="#fff0e0" />
      <text x="70" y="135" text-anchor="middle" font-family="Arial, sans-serif" font-size="12" fill="#333">学生竞赛指导</text>
    </g>
  </g>
  
  <!-- 科研到转换中心的连接 -->
  <path d="M 230,250 C 300,250 320,250 325,250 S 350,180 400,180" stroke="url(#research-gradient)" stroke-width="3" fill="none" class="flow" />
  
  <!-- 转换中心到教学的连接 -->
  <path d="M 400,320 C 450,320 470,320 475,320 S 500,250 570,250" stroke="url(#teaching-gradient)" stroke-width="3" fill="none" class="flow" />
  
  <!-- 上方文本说明 -->
  <g class="fadeIn delay3">
    <rect x="200" y="20" width="400" height="60" rx="10" ry="10" fill="rgba(255,255,255,0.8)" filter="url(#shadow)" />
    <text x="400" y="40" text-anchor="middle" font-family="Arial, sans-serif" font-size="18" fill="#333" font-weight="bold">科研与教学融合平台</text>
    <text x="400" y="65" text-anchor="middle" font-family="Arial, sans-serif" font-size="14" fill="#666">将前沿研究转化为生动教学，提升教育质量与学生体验</text>
  </g>
  
  <!-- 底部：成果展示 -->
  <g class="fadeIn delay4">
    <rect x="150" y="420" width="500" height="60" rx="10" ry="10" fill="rgba(255,255,255,0.8)" filter="url(#shadow)" />
    <text x="180" y="450" font-family="Arial, sans-serif" font-size="14" fill="#333" font-weight="bold">成果：</text>
    
    <g transform="translate(230, 450)">
      <circle cx="0" cy="0" r="15" fill="#1a5fb4" />
      <text x="0" y="0" text-anchor="middle" dominant-baseline="middle" font-family="Arial, sans-serif" font-size="10" fill="white">课</text>
      <text x="25" y="5" font-family="Arial, sans-serif" font-size="14" fill="#333">优质课程</text>
    </g>
    
    <g transform="translate(340, 450)">
      <circle cx="0" cy="0" r="15" fill="#ff7800" />
      <text x="0" y="0" text-anchor="middle" dominant-baseline="middle" font-family="Arial, sans-serif" font-size="10" fill="white">才</text>
      <text x="25" y="5" font-family="Arial, sans-serif" font-size="14" fill="#333">人才培养</text>
    </g>
    
    <g transform="translate(450, 450)">
      <circle cx="0" cy="0" r="15" fill="#6a67ce" />
      <text x="0" y="0" text-anchor="middle" dominant-baseline="middle" font-family="Arial, sans-serif" font-size="10" fill="white">创</text>
      <text x="25" y="5" font-family="Arial, sans-serif" font-size="14" fill="#333">创新实践</text>
    </g>
    
    <g transform="translate(560, 450)">
      <circle cx="0" cy="0" r="15" fill="#2ec27e" />
      <text x="0" y="0" text-anchor="middle" dominant-baseline="middle" font-family="Arial, sans-serif" font-size="10" fill="white">产</text>
      <text x="25" y="5" font-family="Arial, sans-serif" font-size="14" fill="#333">成果转化</text>
    </g>
  </g>
  
  <!-- 飘动的元素 -->
  <g class="fadeIn delay5">
    <!-- 左上角 -->
    <circle cx="80" cy="70" r="5" fill="#1a5fb4" opacity="0.5" class="pulse" />
    <circle cx="100" cy="60" r="3" fill="#ff7800" opacity="0.5" class="pulse" />
    <circle cx="120" cy="80" r="4" fill="#6a67ce" opacity="0.5" class="pulse" />
    
    <!-- 右上角 -->
    <circle cx="680" cy="70" r="5" fill="#1a5fb4" opacity="0.5" class="pulse" />
    <circle cx="700" cy="60" r="3" fill="#ff7800" opacity="0.5" class="pulse" />
    <circle cx="720" cy="80" r="4" fill="#6a67ce" opacity="0.5" class="pulse" />
    
    <!-- 左下角 -->
    <circle cx="80" cy="430" r="5" fill="#1a5fb4" opacity="0.5" class="pulse" />
    <circle cx="100" cy="440" r="3" fill="#ff7800" opacity="0.5" class="pulse" />
    <circle cx="120" cy="420" r="4" fill="#6a67ce" opacity="0.5" class="pulse" />
    
    <!-- 右下角 -->
    <circle cx="680" cy="430" r="5" fill="#1a5fb4" opacity="0.5" class="pulse" />
    <circle cx="700" cy="440" r="3" fill="#ff7800" opacity="0.5" class="pulse" />
    <circle cx="720" cy="420" r="4" fill="#6a67ce" opacity="0.5" class="pulse" />
  </g>
</svg> 